<svg width="86" height="22" viewBox="0 0 86 22" fill="none" xmlns="http://www.w3.org/2000/svg">
<g clip-path="url(#clip0_2895_15)">
<path d="M52.2839 8.35773H49.6345L49.6389 13.5045C49.6389 15.0085 49.0178 16.2253 47.5691 16.2253C46.1198 16.2253 45.4929 15.0085 45.4929 13.5045V8.36259H42.8503L42.8496 13.5045C42.8496 16.4767 44.6899 18.8855 47.5529 18.8855C50.4152 18.8855 52.2832 16.4767 52.2832 13.5045L52.2839 8.35773Z" fill="#009CDE"/>
<path d="M78.8105 5.22147H76.1741V18.62H78.8105V5.22147Z" fill="#009CDE"/>
<path d="M80.7571 5.71573V5.23431H82.8117V5.71573H82.0601V7.83733H81.509V5.71573H80.7571Z" fill="#009CDE"/>
<path d="M83.8753 5.23447L84.4618 7.02419H84.4687L85.0231 5.23447H85.7999V7.83733H85.2837V5.99261H85.2764L84.6621 7.83733H84.2371L83.6227 6.01089H83.6155V7.83733H83.0996V5.23447H83.8753Z" fill="#009CDE"/>
<path d="M40.6953 8.24587C38.4227 7.70127 36.9892 10.0454 36.9294 10.1711C36.9002 10.2328 36.8991 10.2687 36.7986 10.2661C36.7154 10.2642 36.706 10.1711 36.706 10.1711L36.4239 8.37791H34.062V18.6113H36.7096V13.0721C36.7096 12.6195 37.8834 10.4493 40.1581 11.0078C41.3084 11.2906 41.7966 11.7974 41.7966 11.7974V8.67976C41.4508 8.4825 41.0801 8.33646 40.6953 8.24587" fill="#009CDE"/>
<path d="M58.4426 10.8387C58.9651 10.8386 59.4759 10.9994 59.9104 11.3007C60.3449 11.602 60.6836 12.0304 60.8836 12.5315C61.0836 13.0327 61.136 13.5842 61.034 14.1163C60.9321 14.6484 60.6805 15.1371 60.3111 15.5207C59.9416 15.9043 59.4708 16.1656 58.9583 16.2714C58.4459 16.3772 57.9147 16.3228 57.4319 16.1152C56.9492 15.9075 56.5366 15.5559 56.2464 15.1048C55.9562 14.6536 55.8013 14.1233 55.8014 13.5808C55.8016 12.8536 56.08 12.1563 56.5752 11.6421C57.0705 11.1279 57.7422 10.8389 58.4426 10.8387ZM55.8764 21.9818V18.2997L55.8771 18.3005L55.8778 16.9214C55.8778 16.9214 55.8818 16.811 55.9776 16.8099C56.063 16.8088 56.0821 16.8675 56.103 16.9214C56.3036 17.4402 57.4075 19.4155 59.8573 18.7961C60.792 18.5224 61.6345 17.9833 62.2902 17.2396C62.9458 16.4958 63.3886 15.5769 63.5687 14.5862C63.7488 13.5954 63.6591 12.5722 63.3096 11.6315C62.9601 10.6908 62.3647 9.87002 61.5905 9.26147C60.8162 8.65291 59.8937 8.28073 58.9269 8.18678C57.96 8.09284 56.987 8.28085 56.1174 8.72968C55.2479 9.1785 54.5162 9.87034 54.0046 10.7274C53.4931 11.5844 53.222 12.5726 53.2219 13.5808V21.9818L55.8764 21.9818Z" fill="#009CDE"/>
<path d="M72.525 13.5809C72.5251 14.1233 72.3703 14.6537 72.0801 15.1048C71.7899 15.5559 71.3773 15.9075 70.8946 16.1152C70.4119 16.3228 69.8808 16.3772 69.3683 16.2715C68.8558 16.1657 68.3851 15.9045 68.0156 15.5209C67.6461 15.1374 67.3944 14.6487 67.2925 14.1166C67.1905 13.5845 67.2428 13.0331 67.4428 12.5319C67.6428 12.0307 67.9814 11.6023 68.4158 11.301C68.8503 10.9996 69.3611 10.8387 69.8836 10.8388C70.584 10.8389 71.2557 11.1279 71.7511 11.6421C72.2464 12.1563 72.5248 12.8536 72.525 13.5809M72.4497 18.6158H75.1042V13.5809C75.1041 12.5727 74.8331 11.5845 74.3216 10.7275C73.8101 9.8705 73.0784 9.17868 72.2089 8.72984C71.3394 8.28101 70.3665 8.09298 69.3996 8.18689C68.4328 8.2808 67.5103 8.65294 66.7361 9.26144C65.9618 9.86994 65.3665 10.6907 65.017 11.6313C64.6675 12.5719 64.5777 13.5951 64.7577 14.5859C64.9378 15.5766 65.3805 16.4955 66.0361 17.2392C66.6917 17.9829 67.5342 18.522 68.4688 18.7957C70.9186 19.4155 72.0225 17.4399 72.2231 16.9214C72.244 16.8676 72.2628 16.8088 72.3485 16.8096C72.4443 16.8111 72.4483 16.9214 72.4483 16.9214" fill="#009CDE"/>
<path d="M26.4875 7.53515H25.4233V16.2731L26.5164 16.3023C28.7583 16.3023 30.2023 16.0906 30.2023 11.9051C30.2023 7.89161 28.9276 7.53515 26.4875 7.53515M25.7688 18.5944H22.7573V5.21609H25.9886C29.9011 5.21609 32.8686 5.96156 32.8686 11.9051C32.8686 17.7917 29.7253 18.5944 25.7688 18.5944" fill="#009CDE"/>
<path d="M11.4456 4.68588C9.95457 3.13857 8.53197 1.66355 8.10859 0C7.68519 1.66355 6.26237 3.13857 4.77158 4.68588C2.53538 7.0061 0 9.63572 0 13.5797C-1.58677e-08 14.6853 0.209741 15.78 0.617248 16.8014C1.02475 17.8229 1.62205 18.7509 2.37502 19.5327C3.128 20.3145 4.02191 20.9346 5.00571 21.3577C5.98952 21.7808 7.04396 21.9985 8.10883 21.9985C9.1737 21.9985 10.2281 21.7808 11.2119 21.3577C12.1958 20.9346 13.0897 20.3145 13.8426 19.5327C14.5956 18.7509 15.1929 17.8229 15.6004 16.8014C16.0079 15.78 16.2177 14.6853 16.2177 13.5797C16.2177 9.63598 13.6825 7.0061 11.4456 4.68588M3.44651 15.5414C2.94931 15.5239 1.11434 12.2402 4.5185 8.74381L6.77116 11.2985C6.7905 11.3184 6.80557 11.3422 6.81539 11.3685C6.8252 11.3948 6.82955 11.423 6.82813 11.4512C6.82671 11.4794 6.81956 11.5069 6.80715 11.532C6.79474 11.5571 6.77735 11.5792 6.75612 11.5969C6.21858 12.1693 3.92744 14.5546 3.64267 15.3794C3.58389 15.5497 3.49804 15.5432 3.44651 15.5414M8.10884 19.8693C7.7426 19.8693 7.37995 19.7944 7.04159 19.6489C6.70323 19.5034 6.39579 19.2901 6.13683 19.0212C5.87786 18.7524 5.67243 18.4332 5.53228 18.0819C5.39213 17.7306 5.32 17.3541 5.32 16.9738C5.3303 16.2718 5.57612 15.5954 6.01511 15.0613C6.51798 14.4229 8.10847 12.6273 8.10847 12.6273C8.10847 12.6273 9.67461 14.4492 10.1981 15.0552C10.6541 15.5815 10.9037 16.266 10.8977 16.9738C10.8977 17.7417 10.6039 18.4782 10.0808 19.0212C9.55784 19.5642 8.84849 19.8693 8.10884 19.8693M13.4467 15.1739C13.3866 15.3104 13.2502 15.5382 13.0662 15.5452C12.7381 15.5576 12.7031 15.3831 12.4606 15.0105C11.9283 14.1927 7.28284 9.15199 6.41394 8.17713C5.64966 7.3197 6.30632 6.7152 6.61092 6.39842C6.99307 6.00095 8.10855 4.84353 8.10855 4.84353C8.10855 4.84353 11.4347 8.11998 12.8202 10.3587C14.2057 12.5974 13.7282 14.5346 13.4467 15.1739Z" fill="#009CDE"/>
</g>
<defs>
<clipPath id="clip0_2895_15">
<rect width="85.8" height="22" fill="white"/>
</clipPath>
</defs>
</svg>
