<?xml version="1.0" encoding="utf-8"?>
<!-- Generator: Adobe Illustrator 26.5.0, SVG Export Plug-In . SVG Version: 6.00 Build 0)  -->
<svg version="1.1" xmlns="http://www.w3.org/2000/svg" xmlns:xlink="http://www.w3.org/1999/xlink" x="0px" y="0px"
	 height="21" width="94" viewBox="0 0 94 21.1" enable-background="new 0 0 94 21.1" xml:space="preserve">
<g>
	<defs>
		<rect id="SVGID_1_" x="0" width="94" height="21.1"/>
	</defs>
	<clipPath id="SVGID_00000023968218809483906740000013349369510355517339_">
		<use xlink:href="#SVGID_1_"  overflow="visible"/>
	</clipPath>
	<g clip-path="url(#SVGID_00000023968218809483906740000013349369510355517339_)">
		<path fill="#E81C1C" d="M7.2,0l1,1.7c0.2,0.4,0.2,0.8,0,1.1L2.3,12.9l2.8,4.8c0.4,0.7,1.3,1.2,2.1,1.2c0.9,0,1.7-0.5,2.1-1.2
			l2.8-4.8l-0.7-1.3L8.2,17c-0.2,0.4-0.6,0.6-1,0.6c-0.4,0-0.8-0.2-1-0.6l-2.4-4.1l5.5-9.3l1,1.7c0.2,0.4,0.2,0.8,0,1.1l-3.8,6.5
			l0.8,1.3l4.2-7.1l2.7,4.7c0.4,0.7,0.4,1.6,0,2.3l-2.8,4.7c-0.4,0.7-1.7,2.3-4.1,2.3s-3.7-1.6-4.1-2.3l-2.8-4.7
			c-0.4-0.7-0.4-1.6,0-2.3L7.2,0z"/>
		<path d="M20.1,5h1.9v11.2h-1.9V5z"/>
		<path d="M24.6,7.1c0.6,0,1.1-0.5,1.1-1.1c0-0.6-0.5-1.1-1.1-1.1c-0.6,0-1.1,0.5-1.1,1.1C23.5,6.6,24,7.1,24.6,7.1z"/>
		<path d="M23.7,8.4h1.9v7.7h-1.9V8.4z"/>
		<path d="M30.7,8.3c-2.2,0-4,1.5-4,3.9c0,2.4,1.5,3.9,4,3.9c1,0,2,0.5,2,1.6s-0.9,1.7-2,1.7c-1.1,0-2.1-0.7-2.1-1.7h-1.9
			c0,2.1,1.7,3.5,4,3.5c2.3,0,4-1.3,4-3.5c0-1-0.3-1.9-1.6-2.6c1.3-0.6,1.7-1.9,1.7-2.9C34.7,9.8,32.9,8.3,30.7,8.3L30.7,8.3z
			 M30.7,14.5c-1.1,0-2.1-1-2.1-2.3c0-1.4,0.9-2.3,2.1-2.3c1.1,0,2,1,2,2.3C32.8,13.5,31.9,14.5,30.7,14.5z"/>
		<path d="M40.4,8.3c-0.9,0-1.7,0.3-2.5,1.1V5H36v11.2h1.9v-3.9c0-1.1,0.8-2.1,1.9-2.1c1,0,1.8,0.6,1.8,2v4h1.9V12
			C43.6,9.7,42.6,8.3,40.4,8.3L40.4,8.3z"/>
		<path d="M48.3,14.9c-0.2,0-0.4-0.1-0.6-0.2c-0.1-0.2-0.2-0.4-0.2-0.7v-3.8h1.6l0.2-1.7h-1.7V6.3l-2,0.2v1.9h-1.5v1.7h1.5V14
			c0,0.8,0.2,1.4,0.6,1.8c0.4,0.4,1,0.6,1.7,0.6c0.3,0,0.7,0,1-0.1c0.3-0.1,0.6-0.2,0.9-0.4l-0.7-1.2C48.9,14.8,48.6,14.9,48.3,14.9
			z"/>
		<path d="M56.3,12c-0.8-0.5-1.7-0.5-2.6-0.6c-0.5,0-1.3-0.2-1.3-0.8c0-0.5,0.5-0.8,1.4-0.8c0.8,0,1.4,0.2,2,0.7l1.1-1.2
			c-0.9-0.8-1.8-1-3.1-1c-1.4,0-3.4,0.6-3.4,2.4c0,0.7,0.4,1.4,1.1,1.8c0.7,0.4,1.7,0.5,2.5,0.6c0.6,0.1,1.5,0.2,1.3,1
			c-0.1,0.5-0.8,0.7-1.2,0.7c-0.5,0-1,0-1.5-0.1c-0.5-0.1-0.9-0.4-1.4-0.7l-1,1.2c0.1,0,0.1,0.1,0.1,0.1c1.3,1,3,1.4,4.6,1
			c1.2-0.3,2.2-1.1,2.2-2.4C57.2,13.1,57,12.4,56.3,12L56.3,12z"/>
		<path d="M62.7,8.3c-0.9,0-1.9,0.4-2.6,1.2l-0.1-1.1h-1.9v11.2l1.9-0.2v-4.1c0.6,0.8,1.8,1.1,2.6,1.1c2.5,0,4-1.8,4-4.1
			S65.2,8.3,62.7,8.3L62.7,8.3z M62.6,14.7c-1.3,0-2.2-1.2-2.2-2.4s0.8-2.5,2.2-2.5c1.4,0,2.2,1.3,2.2,2.5
			C64.8,13.6,63.9,14.7,62.6,14.7z"/>
		<path d="M69.3,13c0.2,0.9,1.1,1.7,2.5,1.7c0.7,0,1.7-0.4,2.1-0.8l1.3,1.2c-0.8,0.8-2.2,1.2-3.4,1.2c-2.5,0-4.2-1.6-4.2-4.1
			c0-2.3,1.8-4,4.1-4c2.4,0,4.4,1.6,4.2,4.8H69.3L69.3,13z M73.9,11.5c-0.2-0.9-1.2-1.7-2.3-1.7c-1.1,0-2,0.7-2.3,1.7H73.9z"/>
		<path d="M78.3,13c0.2,0.9,1.1,1.7,2.5,1.7c0.7,0,1.7-0.4,2.1-0.8l1.3,1.2c-0.8,0.8-2.2,1.2-3.4,1.2c-2.5,0-4.2-1.6-4.2-4.1
			c0-2.3,1.8-4,4.1-4c2.4,0,4.4,1.6,4.2,4.8H78.3L78.3,13z M82.9,11.5c-0.2-0.9-1.2-1.7-2.3-1.7c-1.1,0-2,0.7-2.3,1.7H82.9z"/>
		<path d="M89.5,16.4c0.9,0,1.9-0.4,2.6-1.2l0.1,1H94V5h-1.9v4.3c-0.6-0.8-1.8-1.1-2.6-1.1c-2.5,0-4,1.8-4,4.1
			C85.5,14.6,87.1,16.4,89.5,16.4L89.5,16.4z M89.6,9.9c1.3,0,2.2,1.2,2.2,2.4s-0.8,2.5-2.2,2.5c-1.4,0-2.2-1.3-2.2-2.5
			C87.4,11.1,88.3,9.9,89.6,9.9z"/>
	</g>
</g>
</svg>
