<svg width="77" height="22" viewBox="0 0 77 22" fill="none" xmlns="http://www.w3.org/2000/svg">
<g clip-path="url(#clip0_59_1891)">
<path d="M16.5525 4.16694C16.5398 4.05295 16.4385 4.00229 16.3625 3.98963C16.2865 3.97696 14.7668 3.9643 14.7668 3.9643C14.7668 3.9643 13.4877 2.72308 13.361 2.59642C13.2344 2.46976 12.9938 2.50776 12.8924 2.53309C12.8924 2.53309 12.6518 2.60909 12.2465 2.73574C12.1832 2.52043 12.0819 2.25445 11.9426 1.98848C11.4867 1.11455 10.8281 0.658596 10.0176 0.658596C9.96694 0.658596 9.90362 0.658596 9.85296 0.671262C9.82763 0.645931 9.8023 0.6206 9.77697 0.582603C9.42237 0.202638 8.97911 0.0253208 8.4472 0.0379863C7.40872 0.0633173 6.3829 0.810583 5.53438 2.15313C4.93915 3.09037 4.49589 4.26827 4.36924 5.18019C3.17878 5.54748 2.34293 5.8008 2.33026 5.81346C1.73503 6.00344 1.7097 6.01611 1.63372 6.58606C1.57039 7.00402 0 19.1756 0 19.1756L13.1837 21.4554L18.8954 20.0368C18.8954 20.0368 16.5651 4.26827 16.5525 4.16694ZM11.588 2.93839C11.284 3.02705 10.9421 3.14104 10.5622 3.25503C10.5495 2.73574 10.4862 2.00114 10.2456 1.36787C11.0434 1.51985 11.4234 2.40644 11.588 2.93839ZM9.87829 3.47034C9.18174 3.68565 8.43454 3.91363 7.67467 4.15428C7.88997 3.34369 8.29523 2.53309 8.78915 2.00114C8.97911 1.79849 9.2324 1.58318 9.53635 1.45652C9.82763 2.0518 9.87829 2.90039 9.87829 3.47034V3.47034ZM8.45987 0.73459C8.70049 0.73459 8.90313 0.785252 9.08043 0.899241C8.80181 1.03856 8.52319 1.25388 8.2699 1.53252C7.61135 2.24179 7.10477 3.33102 6.90214 4.39492C6.26891 4.58491 5.66102 4.77489 5.09112 4.95221C5.47105 3.28036 6.86415 0.785252 8.45987 0.73459V0.73459Z" fill="#95BF47"/>
<path d="M16.3626 3.98965C16.2866 3.97698 14.7669 3.96432 14.7669 3.96432C14.7669 3.96432 13.4878 2.7231 13.3611 2.59644C13.3105 2.54578 13.2472 2.52045 13.1838 2.52045V21.4554L18.8955 20.0368C18.8955 20.0368 16.5653 4.28095 16.5526 4.16696C16.5273 4.05297 16.4386 4.00231 16.3626 3.98965Z" fill="#5E8E3E"/>
<path d="M10.0176 6.92803L9.35904 9.41047C9.35904 9.41047 8.6245 9.0685 7.73799 9.13183C6.44621 9.20783 6.43355 10.0184 6.44621 10.2337C6.5222 11.3483 9.43503 11.5889 9.59967 14.1854C9.72631 16.2372 8.51052 17.6304 6.76283 17.7444C4.66052 17.871 3.50806 16.6425 3.50806 16.6425L3.95131 14.7553C3.95131 14.7553 5.11644 15.6292 6.04095 15.5786C6.64885 15.5406 6.86414 15.0466 6.83881 14.692C6.75016 13.2481 4.36924 13.3241 4.21727 10.9557C4.09062 8.95452 5.40773 6.92803 8.30789 6.73805C9.44769 6.63672 10.0176 6.92803 10.0176 6.92803V6.92803Z" fill="white"/>
<path d="M26.6335 12.2222C25.9749 11.8676 25.633 11.5636 25.633 11.1457C25.633 10.6137 26.1016 10.2717 26.8488 10.2717C27.71 10.2717 28.4698 10.6264 28.4698 10.6264L29.0777 8.77721C29.0777 8.77721 28.5205 8.34658 26.8868 8.34658C24.6072 8.34658 23.0241 9.65113 23.0241 11.4876C23.0241 12.5262 23.7586 13.3241 24.7465 13.8941C25.5443 14.35 25.823 14.6667 25.823 15.148C25.823 15.6419 25.4304 16.0345 24.6832 16.0345C23.5813 16.0345 22.5429 15.4646 22.5429 15.4646L21.897 17.3138C21.897 17.3138 22.8595 17.9597 24.4679 17.9597C26.8108 17.9597 28.4952 16.8071 28.4952 14.73C28.5078 13.6028 27.6593 12.8048 26.6335 12.2222V12.2222ZM35.9799 8.32125C34.8274 8.32125 33.9156 8.86586 33.219 9.70179L33.181 9.68912L34.1815 4.4456H31.5726L29.0397 17.7824H31.6486L32.5225 13.2228C32.8644 11.5003 33.7509 10.4364 34.5868 10.4364C35.1693 10.4364 35.3973 10.829 35.3973 11.399C35.3973 11.7536 35.3593 12.1969 35.2833 12.5515L34.2955 17.7697H36.9044L37.9302 12.3742C38.0442 11.8043 38.1202 11.1203 38.1202 10.677C38.1202 9.2205 37.335 8.32125 35.9799 8.32125V8.32125ZM44.0218 8.32125C40.881 8.32125 38.804 11.1583 38.804 14.3247C38.804 16.3512 40.0578 17.9724 42.4007 17.9724C45.4782 17.9724 47.5679 15.2113 47.5679 11.9689C47.5552 10.1071 46.4534 8.32125 44.0218 8.32125ZM42.73 15.9712C41.8435 15.9712 41.4636 15.2113 41.4636 14.274C41.4636 12.7795 42.2361 10.3351 43.6545 10.3351C44.579 10.3351 44.883 11.133 44.883 11.9056C44.883 13.5141 44.1105 15.9712 42.73 15.9712ZM54.2294 8.32125C52.469 8.32125 51.4685 9.86644 51.4685 9.86644H51.4305L51.5825 8.46057H49.2776C49.1636 9.41048 48.9609 10.8417 48.7456 11.9183L46.9346 21.4681H49.5435L50.2654 17.6051H50.316C50.316 17.6051 50.8479 17.947 51.8484 17.947C54.9132 17.947 56.9142 14.806 56.9142 11.6269C56.9269 9.89177 56.1417 8.32125 54.2294 8.32125ZM51.7345 16.0092C51.0506 16.0092 50.658 15.6293 50.658 15.6293L51.0886 13.1848C51.3925 11.5636 52.241 10.4744 53.1529 10.4744C53.9507 10.4744 54.1914 11.209 54.1914 11.9183C54.1914 13.6028 53.1909 16.0092 51.7345 16.0092ZM60.6502 4.58492C59.8144 4.58492 59.1558 5.24353 59.1558 6.10478C59.1558 6.87738 59.6498 7.40933 60.3843 7.40933H60.4223C61.2328 7.40933 61.942 6.86471 61.9547 5.88947C61.9547 5.12954 61.4481 4.58492 60.6502 4.58492ZM57.0029 17.7824H59.6118L61.3848 8.53656H58.7506L57.0029 17.7824ZM68.021 8.51123H66.2099L66.2986 8.0806C66.4506 7.19402 66.9825 6.39609 67.8437 6.39609C68.3123 6.39609 68.6795 6.52274 68.6795 6.52274L69.1861 4.48359C69.1861 4.48359 68.7302 4.25562 67.7677 4.25562C66.8432 4.25562 65.9187 4.52159 65.2095 5.12954C64.3229 5.88947 63.905 6.9787 63.6897 8.0806L63.6137 8.51123H62.3979L62.018 10.4744H63.2338L61.8534 17.7824H64.4623L65.8427 10.4744H67.641L68.021 8.51123V8.51123ZM74.3025 8.53656C74.3025 8.53656 72.6688 12.6529 71.9343 14.8947H71.8963C71.8456 14.1727 71.2504 8.53656 71.2504 8.53656H68.5149L70.0853 17.0351C70.1233 17.2251 70.0979 17.3391 70.0346 17.4657C69.7307 18.0484 69.2241 18.6183 68.6162 19.0363C68.1223 19.3909 67.5777 19.6189 67.1345 19.7709L67.8563 21.9873C68.3882 21.8734 69.4774 21.4427 70.4146 20.5688C71.605 19.4542 72.7068 17.7317 73.834 15.3886L77.0254 8.53656H74.3025V8.53656Z" fill="black"/>
</g>
<defs>
<clipPath id="clip0_59_1891">
<rect width="77" height="22" fill="white"/>
</clipPath>
</defs>
</svg>
