<svg width="98" height="16" viewBox="0 0 98 16" fill="none" xmlns="http://www.w3.org/2000/svg">
<g clip-path="url(#clip0_59_1900)">
<path d="M3.5998 7.96955L9.08617 2.1112C9.45682 1.7171 9.95835 1.49588 10.4811 1.49588C11.0039 1.49588 11.5054 1.7171 11.8761 2.1112L12.3025 2.56696L13.1571 1.65335L12.7308 1.1955C12.1329 0.557793 11.3228 0.199646 10.4782 0.199646C9.63361 0.199646 8.8235 0.557793 8.22564 1.1955L2.74316 7.05594L3.5998 7.96955Z" fill="black"/>
<path d="M10.9241 4.04041L10.0694 3.1268L4.58111 8.99348C4.21037 9.3895 3.70765 9.61187 3.18352 9.61168C2.6594 9.61148 2.15682 9.38873 1.78634 8.99244C1.41585 8.59614 1.20782 8.05875 1.20801 7.4985C1.20819 6.93824 1.41657 6.40101 1.78731 6.00499L6.52218 0.943702L5.66749 0.0300903L0.932619 5.09138C0.631196 5.40611 0.39119 5.78164 0.226502 6.19623C0.0618138 6.61081 -0.024282 7.0562 -0.0267987 7.50661C-0.0293153 7.95701 0.0517973 8.40347 0.211841 8.82013C0.371884 9.23679 0.607677 9.61536 0.905561 9.93392C1.20345 10.2525 1.5575 10.5047 1.94722 10.6759C2.33693 10.8472 2.75457 10.9341 3.17592 10.9316C3.59728 10.9291 4.01399 10.8373 4.4019 10.6614C4.78982 10.4855 5.14124 10.2292 5.4358 9.90709L10.9241 4.04041ZM16.3871 5.09138C15.789 4.45417 14.979 4.09638 14.1346 4.09638C13.2901 4.09638 12.4801 4.45417 11.882 5.09138L6.39368 10.9581L7.24837 11.8717L12.7367 6.00499C13.0132 5.71004 13.3652 5.5093 13.7483 5.42811C14.1315 5.34691 14.5285 5.38891 14.8894 5.54881C15.2502 5.7087 15.5586 5.9793 15.7756 6.32645C15.9926 6.6736 16.1086 7.08171 16.1087 7.49923C16.1097 7.77738 16.0586 8.05292 15.9582 8.30957C15.8579 8.56622 15.7105 8.79877 15.5247 8.99348L10.7956 14.0548L11.6523 14.9684L16.3871 9.90709C16.9837 9.26801 17.3188 8.40206 17.3188 7.49923C17.3188 6.59641 16.9837 5.73045 16.3871 5.09138V5.09138Z" fill="black"/>
<path d="M13.7199 7.0289L8.2316 12.8935C7.86046 13.289 7.35778 13.5111 6.83372 13.5111C6.30967 13.5111 5.80699 13.289 5.43585 12.8935L5.00948 12.4357L4.15479 13.3493L4.58116 13.8071C5.17927 14.4443 5.98928 14.8021 6.83372 14.8021C7.67816 14.8021 8.48818 14.4443 9.08629 13.8071L14.5746 7.93835L13.7199 7.0289Z" fill="black"/>
<path d="M22.3309 9.07672C22.3871 9.42469 22.5645 9.73701 22.8274 9.95079C23.129 10.1738 23.491 10.2843 23.8573 10.265C24.206 10.2888 24.5511 10.1788 24.8308 9.95495C24.9422 9.85583 25.031 9.73082 25.0904 9.58944C25.1498 9.44806 25.1782 9.29404 25.1734 9.13915C25.1773 8.99426 25.1458 8.85078 25.0819 8.72293C25.0179 8.60688 24.93 8.50795 24.8249 8.43365C24.6996 8.34467 24.5633 8.27464 24.42 8.22554L23.8787 8.05072L23.3628 7.90088C23.0768 7.81987 22.7985 7.71049 22.5315 7.57415C22.3023 7.45829 22.0904 7.3068 21.9026 7.12462C21.7352 6.95844 21.6025 6.75632 21.5132 6.5315C21.418 6.28417 21.3716 6.01848 21.377 5.75108C21.3742 5.45482 21.4341 5.16171 21.5522 4.89366C21.666 4.6328 21.8346 4.40349 22.0448 4.22354C22.276 4.02573 22.5402 3.87671 22.8235 3.78443C23.1545 3.6723 23.5004 3.61819 23.8476 3.62418C24.5627 3.62418 25.1293 3.80454 25.5472 4.16527C25.7544 4.34357 25.9261 4.56425 26.0525 4.8144C26.1789 5.06454 26.2573 5.33912 26.2832 5.62205L25.115 5.72403C25.0572 5.43753 24.907 5.18189 24.6906 5.00188C24.4283 4.81444 24.1158 4.72381 23.8009 4.74382C23.5036 4.72515 23.2096 4.81788 22.9695 5.00604C22.8736 5.08594 22.7966 5.18872 22.7445 5.30618C22.6924 5.42363 22.6668 5.55248 22.6697 5.68241C22.6649 5.82092 22.6952 5.95825 22.7573 6.0799C22.8199 6.1922 22.9059 6.28761 23.0085 6.35877C23.1335 6.44573 23.2683 6.51564 23.4095 6.56688C23.5672 6.62932 23.7463 6.69591 23.9449 6.76459L24.4394 6.929C24.7471 7.03306 25.0255 7.14127 25.2747 7.25365C25.5038 7.35785 25.7171 7.49815 25.9074 7.66988C26.0789 7.82507 26.2159 8.01915 26.3085 8.23802C26.4086 8.4963 26.4564 8.77435 26.4486 9.05382C26.4519 9.3805 26.3853 9.70366 26.254 9.99865C26.1273 10.282 25.9422 10.531 25.7127 10.727C25.4661 10.9355 25.1856 11.0935 24.8853 11.1932C24.5431 11.307 24.1864 11.3624 23.8281 11.3576C23.1945 11.3829 22.5694 11.1951 22.0409 10.8207C21.7941 10.6298 21.5875 10.3859 21.4343 10.1045C21.281 9.82314 21.1846 9.51061 21.1511 9.18702L22.3309 9.07672ZM31.3743 3.64499C31.864 3.63821 32.3502 3.73438 32.8053 3.92802C33.2209 4.10595 33.596 4.37704 33.9053 4.72301C34.2157 5.07578 34.4561 5.49203 34.612 5.94671C34.7832 6.4465 34.8683 6.97533 34.8632 7.50755C34.8702 8.04954 34.7796 8.58792 34.5964 9.09337C34.4257 9.55276 34.1678 9.9694 33.8391 10.3171L34.7658 11.4762V11.8363H33.5977L32.9494 10.9893C32.7145 11.1094 32.4685 11.2029 32.2154 11.2681C31.9422 11.3306 31.6634 11.3613 31.384 11.3597C30.8887 11.3629 30.3977 11.261 29.9394 11.06C29.5262 10.881 29.1537 10.6091 28.8472 10.263C28.5406 9.91178 28.3041 9.49755 28.1522 9.0455C27.9843 8.55065 27.9006 8.02768 27.9049 7.50131C27.9001 6.9715 27.9838 6.44503 28.1522 5.94671C28.3051 5.49312 28.5437 5.078 28.8531 4.72717C29.1616 4.38111 29.5352 4.10876 29.9492 3.92802C30.4016 3.73208 30.8863 3.63582 31.3743 3.64499V3.64499ZM31.3646 4.76047C31.0431 4.75517 30.7246 4.82626 30.432 4.96858C30.1632 5.10133 29.9256 5.29691 29.737 5.54089C29.5407 5.79672 29.3927 6.0907 29.3009 6.40664C29.1993 6.7584 29.1494 7.12487 29.1529 7.49298C29.1495 7.86429 29.2014 8.2338 29.3067 8.58765C29.401 8.90646 29.5502 9.20362 29.7467 9.46381C29.9351 9.71075 30.1725 9.9098 30.4417 10.0465C30.734 10.1899 31.0528 10.261 31.3743 10.2546C31.6956 10.258 32.0137 10.187 32.3069 10.0465C32.5752 9.9166 32.8127 9.72385 33.0019 9.48253C33.2007 9.22632 33.3502 8.93071 33.4419 8.61263C33.5484 8.25045 33.601 7.87262 33.5977 7.49298C33.6006 7.11883 33.5481 6.74654 33.4419 6.38999C33.3489 6.07378 33.1994 5.77979 33.0019 5.52424C32.8107 5.2829 32.5721 5.08961 32.303 4.95818C32.0074 4.81983 31.6871 4.75235 31.3646 4.76047V4.76047ZM39.452 10.3067C39.6685 10.3209 39.8852 10.2843 40.087 10.1995C40.2888 10.1146 40.4708 9.98356 40.6201 9.81551C40.8966 9.48947 41.0348 8.98862 41.0348 8.31294V3.78859H42.2478V8.35457C42.2573 8.82234 42.1915 9.28839 42.0531 9.73227C41.9412 10.0878 41.7525 10.4101 41.5021 10.6729C41.2537 10.9243 40.9526 11.1084 40.624 11.2099C39.8596 11.4358 39.0522 11.4358 38.2878 11.2099C37.9603 11.1083 37.6605 10.9242 37.4136 10.6729C37.1639 10.4096 36.9752 10.0874 36.8626 9.73227C36.7243 9.28837 36.6584 8.82234 36.6679 8.35457V3.78859H37.8848V8.31294C37.8848 8.98723 38.0236 9.48808 38.3014 9.81551C38.4486 9.9813 38.6277 10.111 38.8264 10.1958C39.025 10.2806 39.2384 10.3184 39.452 10.3067V10.3067ZM43.4626 10.8519L45.9255 3.79691H47.7517L50.1872 10.8519V11.2057H48.9899L48.2929 9.08712H45.2888L44.584 11.2057H43.4548L43.4626 10.8519ZM45.6548 7.97997H47.9463L47.5686 6.80205C47.4207 6.34212 47.3019 5.9696 47.2104 5.67616C47.1189 5.38273 47.041 5.13299 46.969 4.91239H46.6711L46.5543 5.2641C46.5154 5.38064 46.4725 5.51176 46.4239 5.65535C46.3752 5.79895 46.3226 5.96544 46.2642 6.15274C46.2058 6.34004 46.1357 6.5544 46.052 6.80205L45.6548 7.97997ZM56.9897 11.2057H55.8216L53.7053 8.29213H52.9265V11.2057H51.7272V3.78859H53.9798C54.3173 3.78795 54.6543 3.81369 54.9883 3.86559C55.2986 3.91369 55.5948 4.03605 55.8547 4.22354C56.4024 4.60924 56.6763 5.19057 56.6763 5.96752C56.6817 6.26863 56.6335 6.56809 56.5341 6.84992C56.45 7.0872 56.3237 7.30485 56.1623 7.4909C56.0083 7.66575 55.8271 7.8108 55.6269 7.91961C55.4261 8.02932 55.2137 8.11248 54.9941 8.16727L56.9897 10.8519V11.2057ZM52.9226 7.17665H53.9759C54.3578 7.19838 54.7377 7.10462 55.072 6.90611C55.2067 6.80991 55.3148 6.67701 55.3854 6.52115C55.4559 6.36528 55.4861 6.19211 55.4731 6.01955C55.489 5.84828 55.4592 5.67568 55.3872 5.52174C55.3152 5.36779 55.2039 5.23878 55.0662 5.14964C54.7282 4.97002 54.3529 4.8855 53.9759 4.90407H52.9226V7.17665ZM58.5355 3.78859H63.029V4.92488H59.7193V6.86656H62.7915V7.98205H59.7251V10.0632H63.0971V11.2057H58.5355V3.78859ZM65.7839 9.07672C65.84 9.42469 66.0174 9.73701 66.2803 9.95079C66.5821 10.1735 66.944 10.284 67.3102 10.265C67.6589 10.2888 68.0041 10.1788 68.2837 9.95495C68.3951 9.85583 68.4839 9.73082 68.5433 9.58944C68.6027 9.44806 68.6311 9.29404 68.6263 9.13915C68.6303 8.99426 68.5987 8.85078 68.5348 8.72293C68.4708 8.60688 68.383 8.50795 68.2778 8.43365C68.1525 8.34467 68.0162 8.27464 67.8729 8.22554L67.3317 8.05072L66.8099 7.89672C66.5239 7.81571 66.2455 7.70632 65.9786 7.56998C65.7493 7.45412 65.5374 7.30264 65.3497 7.12046C65.1823 6.95428 65.0496 6.75216 64.9603 6.52734C64.8641 6.26541 64.818 5.98552 64.8247 5.70421C64.8314 5.4229 64.8907 5.14588 64.9993 4.8895C65.1137 4.62906 65.2822 4.3999 65.4918 4.21938C65.723 4.02157 65.9873 3.87255 66.2706 3.78026C66.6016 3.66814 66.9475 3.61402 67.2947 3.62002C68.0098 3.62002 68.577 3.80038 68.9963 4.16111C69.2031 4.33952 69.3746 4.56026 69.5006 4.81041C69.6267 5.06056 69.7047 5.33508 69.7302 5.61789L68.5621 5.71987C68.5053 5.43396 68.3565 5.17841 68.1416 4.99772C67.8794 4.80999 67.5668 4.71934 67.2518 4.73966C66.9546 4.72098 66.6606 4.81372 66.4205 5.00188C66.325 5.08199 66.2483 5.18487 66.1965 5.30231C66.1448 5.41975 66.1195 5.54849 66.1226 5.67824C66.1172 5.81657 66.1468 5.95388 66.2083 6.07574C66.2709 6.18804 66.3568 6.28345 66.4594 6.35461C66.5845 6.44156 66.7192 6.51148 66.8605 6.56272C67.0182 6.62516 67.1973 6.69175 67.3978 6.76043L67.8904 6.92484C68.1993 7.02889 68.4777 7.13711 68.7256 7.24949C68.9548 7.35369 69.1681 7.49398 69.3584 7.66572C69.5299 7.82091 69.6669 8.01499 69.7594 8.23386C69.8596 8.49214 69.9074 8.77019 69.8996 9.04966C69.9029 9.37634 69.8363 9.6995 69.7049 9.99449C69.5789 10.2783 69.3937 10.5274 69.1637 10.7229C68.9166 10.9297 68.6362 11.0863 68.3363 11.1849C67.9934 11.2986 67.6361 11.3541 67.2771 11.3493C66.6435 11.3743 66.0186 11.1865 65.4899 10.8124C65.2448 10.622 65.0394 10.3792 64.8869 10.0994C64.7344 9.81953 64.6381 9.50882 64.604 9.18702L65.7839 9.07672ZM71.6285 3.78859H74.1594C74.5604 3.77752 74.9604 3.83729 75.3432 3.96548C75.634 4.06132 75.9004 4.22721 76.1219 4.45038C76.3166 4.6528 76.4622 4.90278 76.5463 5.17878C76.6356 5.47023 76.6796 5.77533 76.6768 6.08198C76.6848 6.42753 76.6237 6.77092 76.4977 7.08925C76.3839 7.36759 76.2065 7.6109 75.9817 7.79683C75.7358 7.99142 75.4567 8.1328 75.1601 8.21305C74.8034 8.31088 74.4362 8.35776 74.0679 8.35249H72.8414V11.2057H71.6324L71.6285 3.78859ZM72.8375 7.23909H73.9959C74.1918 7.24064 74.3874 7.22182 74.58 7.1829C74.7438 7.15011 74.9008 7.08595 75.0433 6.99351C75.1745 6.90581 75.2814 6.78223 75.3529 6.63556C75.4313 6.46337 75.4694 6.27339 75.4639 6.08198C75.4696 5.88586 75.4316 5.6911 75.3529 5.51384C75.2835 5.36528 75.1779 5.23947 75.0472 5.14964C74.9071 5.05655 74.7519 4.99232 74.5897 4.96026C74.3972 4.92103 74.2016 4.9022 74.0056 4.90407H72.8278L72.8375 7.23909ZM77.0116 10.8519L79.4764 3.79691H81.3026L83.7363 10.8519V11.2057H82.5486L81.8536 9.08712H78.8378L78.1428 11.2057H77.0116V10.8519ZM79.2058 7.97997H81.4954L81.1177 6.80205C80.9697 6.34212 80.8509 5.9696 80.7614 5.67616L80.52 4.91239H80.2124L80.0955 5.2641C80.0566 5.38064 80.0138 5.51176 79.9651 5.65535C79.9164 5.79895 79.8639 5.96544 79.8055 6.15274C79.7471 6.34004 79.677 6.5544 79.5932 6.80205L79.2058 7.97997ZM91.0994 9.24321C90.9895 9.53338 90.8456 9.8075 90.6711 10.059C90.4902 10.3168 90.2728 10.5429 90.0267 10.7291C89.7599 10.9294 89.4648 11.0826 89.1525 11.1828C88.7939 11.2976 88.4211 11.3538 88.0467 11.3493C87.5633 11.3571 87.0835 11.2587 86.6371 11.06C86.2284 10.8777 85.8603 10.6054 85.5566 10.2609C85.2515 9.90843 85.0164 9.49358 84.8655 9.04134C84.7003 8.54943 84.6179 8.03016 84.6221 7.50755C84.6177 6.98493 84.7001 6.46562 84.8655 5.97376C85.0167 5.5195 85.2532 5.10307 85.5605 4.75007C85.866 4.40183 86.236 4.12542 86.6469 3.93843C87.0946 3.73716 87.5766 3.63724 88.0623 3.64499C88.7379 3.61931 89.4044 3.81778 89.9702 4.21314C90.4732 4.57942 90.8543 5.10704 91.0586 5.71987L89.8301 5.97793C89.6771 5.61748 89.4347 5.3087 89.1292 5.08513C88.8062 4.86162 88.4274 4.74839 88.0428 4.76047C87.7274 4.75309 87.4148 4.82435 87.1297 4.96858C86.8671 5.10629 86.6363 5.30461 86.4541 5.54922C86.2628 5.80979 86.12 6.10723 86.0336 6.42537C85.9342 6.77546 85.885 7.13962 85.8876 7.50547C85.8847 7.87369 85.9352 8.24017 86.0375 8.59181C86.1291 8.9068 86.2765 9.20001 86.4717 9.45548C86.6621 9.69539 86.8993 9.88788 87.1667 10.0195C87.4578 10.1622 87.7751 10.2333 88.0954 10.2276C88.4933 10.2447 88.8854 10.1211 89.2109 9.87587C89.4979 9.65118 89.7313 9.35745 89.8924 9.01844L91.0994 9.24321ZM92.7329 3.78859H97.2263V4.92488H93.9166V6.86656H96.9947V7.98205H93.9225V10.0632H97.2945V11.2057H92.7329V3.78859Z" fill="black"/>
</g>
<defs>
<clipPath id="clip0_59_1900">
<rect width="97.3451" height="15.0442" fill="white"/>
</clipPath>
</defs>
</svg>
