<?xml version="1.0" encoding="utf-8"?>
<svg height="16" version="1.1" xmlns="http://www.w3.org/2000/svg" xmlns:xlink="http://www.w3.org/1999/xlink" x="0px" y="0px"
	 viewBox="0 0 1080 181" enable-background="new 0 0 1080 181" xml:space="preserve">
<path fill-rule="evenodd" clip-rule="evenodd" fill="#146EF5" d="M288.6,0.7l-92.1,180H110l38.5-74.6h-1.7
	C115,147.4,67.6,174.5,0,180.7v-73.6c0,0,43.2-2.6,68.7-29.3H0V0.7h77.2v63.5l1.7,0l31.5-63.5h58.4v63.1l1.7,0l32.7-63.1H288.6z"/>
<path fill="#080808" d="M790.8,160.8h24.9V18.2h-24.9V160.8z"/>
<path fill-rule="evenodd" clip-rule="evenodd" fill="#080808" d="M653.8,159.4c5.4,2.2,10.9,3.4,16.5,3.4c9.2,0,17.5-2.2,24.8-6.7
	c7.3-4.5,12.9-10.7,16.9-18.6c4-8,6-17,6-27s-2.1-19.1-6.2-27c-4.1-8-9.9-14.1-17.2-18.5c-7.3-4.4-15.7-6.6-25-6.6
	c-5.9,0-11.7,1.2-17.1,3.5c-5.5,2.3-10,5.6-13.7,9.8c-0.3,0.3-0.6,0.7-0.8,1V18.3H613v142.6h24.8l0-13.3c0.6,0.8,1.3,1.6,2.1,2.3
	C643.7,153.9,648.4,157.1,653.8,159.4z M679.3,136.4c-4.1,2.5-8.7,3.7-13.9,3.7c-5.2,0-9.9-1.3-14.2-3.8c-4.3-2.6-7.7-6.2-10.3-10.7
	c-2.5-4.5-3.7-9.6-3.7-15.3c-0.1-5.7,1.2-10.8,3.6-15.3c2.5-4.6,6-8.1,10.3-10.6c4.3-2.5,9.1-3.8,14.3-3.7c5.2-0.1,9.9,1.2,13.9,3.6
	c4.1,2.4,7.3,5.9,9.5,10.5c2.2,4.5,3.4,9.7,3.4,15.5c0,5.8-1.1,11-3.4,15.5C686.5,130.3,683.4,133.8,679.3,136.4z"/>
<path fill="#080808" d="M324.6,26.8H353l25.4,92.8l27-92.8h23.7l29.3,90.9l24.4-90.9h26l-38.4,134H446L416.2,72l-27.4,88.8H364
	L324.6,26.8z"/>
<path fill-rule="evenodd" clip-rule="evenodd" fill="#080808" d="M550.8,163.2c-9.9,0.1-18.8-2.1-26.8-6.6
	c-7.9-4.5-14.1-10.7-18.7-18.7c-4.5-8-6.7-17-6.7-27.2c0-9.9,2.3-18.8,6.9-26.9c4.6-8,10.9-14.3,18.8-18.8
	c7.9-4.5,16.7-6.7,26.4-6.7c10.9,0,20.5,2.4,28.7,7.3c8.3,4.9,14.4,11.7,18.5,20.7c4.1,8.9,5.6,19,4.5,30.5h-78
	c0.2,4.6,1.4,8.7,3.4,12.5c2.3,4.1,5.5,7.3,9.6,9.6c4.1,2.3,8.7,3.5,13.8,3.5c3.9-0.1,7.5-0.7,10.8-2c3.3-1.3,6.2-3.1,8.5-5.4
	c2.4-2.2,4-4.8,5-7.6h26c-1.6,7-4.7,13.2-9.5,18.7c-4.7,5.4-10.7,9.6-17.8,12.7C567.1,161.8,559.3,163.3,550.8,163.2z M527.9,91.8
	c-1.5,2.5-2.5,5.3-3,8.2h51.7c-0.4-3.7-1.5-7.1-3.4-10.1c-2.2-3.6-5.2-6.3-8.9-8.3c-3.8-2-8-3-12.7-3c-5,0-9.6,1.2-13.7,3.5
	C533.6,84.4,530.3,87.6,527.9,91.8z"/>
<path fill="#080808" d="M736.2,60.5c0-8.1,1.9-15.4,5.6-21.7c3.7-6.4,8.9-11.3,15.6-14.8c6.7-3.6,14.6-5.4,23.6-5.6v22.1
	c-4.2,0.1-7.8,0.9-10.7,2.6c-2.9,1.6-5.2,4-6.7,7.2c-1.5,2.9-2.2,6.3-2.4,10.1h19.3v21h-19.3v79.3h-24.9V81.5h-16v-21H736.2z"/>
<path fill-rule="evenodd" clip-rule="evenodd" fill="#080808" d="M878.8,163c-10.1,0-19.2-2.2-27.2-6.6c-8-4.5-14.2-10.7-18.8-18.6
	c-4.5-8-6.7-17-6.7-27c0-10.1,2.2-19.2,6.7-27.1c4.6-8,10.8-14.2,18.8-18.7c8-4.4,17.1-6.6,27.2-6.6c10.2,0,19.3,2.2,27.3,6.6
	c8.1,4.4,14.4,10.6,18.8,18.6c4.5,8,6.8,17,6.8,27.2c-0.1,10.1-2.3,19.1-6.8,27c-4.4,7.9-10.7,14.1-18.8,18.6
	C898.1,160.8,889,163,878.8,163z M878.8,140.2c5.3,0,10.1-1.2,14.2-3.6c4.1-2.5,7.3-5.9,9.6-10.4c2.2-4.5,3.4-9.6,3.4-15.4
	c0-5.8-1.1-11-3.4-15.5c-2.2-4.5-5.4-8-9.6-10.4c-4.1-2.5-8.9-3.7-14.2-3.7c-5.3,0-10,1.2-14.1,3.7c-4.1,2.4-7.2,5.9-9.5,10.4
	c-2.2,4.5-3.3,9.7-3.3,15.5c0,5.8,1.1,10.9,3.4,15.4c2.3,4.4,5.5,7.9,9.5,10.4C868.9,139,873.5,140.2,878.8,140.2z"/>
<path fill="#080808" d="M958.6,60.5H931l30,100.3h24.2l19.7-64.1l21.3,64.1h23.8l30-100.3h-25l-17,62.4l-18.8-62.4h-24.2l-18.7,63.8
	L958.6,60.5z"/>
</svg>
