<svg width="40" height="16" viewBox="0 0 40 16" fill="none" xmlns="http://www.w3.org/2000/svg">
<g clip-path="url(#clip0_59_1898)">
<path fill-rule="evenodd" clip-rule="evenodd" d="M0 0.0182857C0 0.0182857 1.54896 -0.185143 2.5816 0.766857C3.21869 1.35429 3.40427 2.29029 3.40427 2.29029L5.51331 10.8343L7.2667 3.84057C7.43788 3.09714 7.74534 2.17829 8.2323 1.55657C8.85332 0.765143 10.1148 0.715429 10.2494 0.715429C10.3834 0.715429 11.6449 0.765143 12.2654 1.55657C12.7529 2.17829 13.0603 3.09714 13.2315 3.84057L14.9849 10.8343L17.0934 2.28971C17.0934 2.28971 17.2795 1.35371 17.9166 0.766286C18.9493 -0.185143 20.4977 0.0182857 20.4977 0.0182857L16.4596 15.9869C16.4596 15.9869 15.1278 16.0874 14.4614 15.732C13.5861 15.2657 13.1695 14.9051 12.6393 12.7326L12.5845 12.5069C12.3911 11.7074 12.0953 10.4554 11.7956 9.18514L11.7058 8.804L11.6161 8.42457C11.1845 6.59714 10.7868 4.91429 10.723 4.70057C10.6632 4.5 10.5923 4.02229 10.2494 4.02229C9.91311 4.02229 9.8361 4.50057 9.77461 4.70057C9.70259 4.936 9.22616 6.96057 8.7464 8.99429L8.65666 9.37543C8.4115 10.4199 8.16387 11.4637 7.91376 12.5069L7.85836 12.7326C7.32874 14.9051 6.91214 15.2657 6.03684 15.732C5.36983 16.0874 4.03804 15.9869 4.03804 15.9869L0 0.0182857ZM24.3745 2.85714V3.42571L24.3756 3.42514V12.9269C24.3678 14.8771 24.169 15.3097 23.3047 15.7589C22.6327 16.1074 21.6056 15.9754 21.6056 15.9754V5.33257C21.6056 4.79829 21.7801 4.448 22.4239 4.13371C22.8078 3.94571 23.1662 3.80229 23.5385 3.58914C24.1208 3.25886 24.3745 2.85714 24.3745 2.85714ZM25.4836 0.0714286C25.4836 0.0714286 27.6314 -0.313143 28.6951 0.704C29.3754 1.35543 30.1365 2.52686 30.1365 2.52686L32.009 5.364C32.0999 5.51143 32.2184 5.67257 32.4079 5.67257C32.5979 5.67257 32.717 5.51143 32.8079 5.364L34.6804 2.52686C34.6804 2.52686 35.4416 1.35543 36.1219 0.704C37.1855 -0.313143 39.3333 0.0714286 39.3333 0.0714286L34.2444 8.02743L39.3195 15.9594L39.3018 15.9617C39.0912 15.9874 37.0659 16.2034 36.0581 15.2383C35.3773 14.588 34.6804 13.5286 34.6804 13.5286L32.8079 10.692C32.717 10.5434 32.5979 10.3834 32.4085 10.3834C32.2184 10.3834 32.0999 10.5434 32.009 10.692L30.1365 13.5286C30.1365 13.5286 29.4773 14.588 28.797 15.2383C27.7333 16.2571 25.4969 15.9594 25.4969 15.9594L30.572 8.028L25.4836 0.0714286ZM24.3534 0H24.3756C24.3756 1.09143 24.2725 1.73829 23.6072 2.24171C23.2966 2.47731 22.9563 2.66802 22.5956 2.80857C22.004 3.03086 21.6056 3.42857 21.6056 3.42857C21.6056 1.44229 21.8993 0.723429 22.6859 0.297143C23.1651 0.0388571 23.9446 0.00342857 24.2482 0L24.3534 0Z" fill="black"/>
</g>
<defs>
<clipPath id="clip0_59_1898">
<rect width="39.3333" height="16" fill="white"/>
</clipPath>
</defs>
</svg>
