<svg width="100" height="21" viewBox="0 0 100 21" fill="none" xmlns="http://www.w3.org/2000/svg">
<g clip-path="url(#clip0_59_1887)">
<path d="M1.69287 10.1646C1.69287 13.4095 3.54986 16.3728 6.47023 17.788L2.42785 6.71646C1.94308 7.80329 1.69287 8.97613 1.69287 10.1646ZM10.3132 10.9035L7.77208 18.2885C8.55006 18.5191 9.35541 18.6364 10.1647 18.6364C11.1225 18.6364 12.0764 18.4722 12.9795 18.1555C12.9521 18.1203 12.9326 18.0813 12.9169 18.0382L10.3132 10.9035Z" fill="black"/>
<path d="M10.1646 0C4.55061 0 0 4.55061 0 10.1646C0 15.7786 4.55061 20.3292 10.1646 20.3292C15.7786 20.3292 20.3292 15.7786 20.3292 10.1646C20.3292 4.55061 15.7786 0 10.1646 0ZM18.0891 15.5049C15.5323 19.2893 10.6572 20.7436 6.44669 18.9687C4.15575 17.9991 2.33395 16.1773 1.3644 13.8864C-0.156378 10.3053 0.652879 6.1574 3.40905 3.40905C6.15739 0.660698 10.3014 -0.148559 13.8825 1.36049C16.1734 2.33004 17.9952 4.15184 18.9648 6.44279C20.2236 9.41788 19.8913 12.823 18.0851 15.501L18.0891 15.5049Z" fill="black"/>
<path d="M17.5925 6.10265C17.6316 6.39195 17.6511 6.68125 17.6511 6.97055C17.6355 8.01438 17.4165 9.04647 17.006 10.0043L14.4219 17.487C18.39 15.1804 19.7974 10.1294 17.5925 6.10265ZM15.884 9.73845C15.8723 8.90573 15.6299 8.09257 15.1842 7.39277C14.7542 6.69689 14.3515 6.10656 14.3515 5.40677C14.3359 4.60142 14.9692 3.93681 15.7746 3.90945H15.884C12.4359 0.750605 7.08384 0.989082 3.925 4.43331C3.61616 4.76953 3.33858 5.1292 3.08838 5.51232H3.63179C4.51924 5.51232 5.89146 5.40677 5.89146 5.40677C6.08693 5.40677 6.24331 5.56706 6.24331 5.75862C6.24331 5.93064 6.1143 6.0792 5.94228 6.10656C5.94228 6.10656 5.48488 6.15738 4.97665 6.18475L8.0573 15.3602L9.91429 9.801L8.60071 6.19257C8.14331 6.1652 7.71327 6.11438 7.71327 6.11438C7.5217 6.08701 7.38878 5.90718 7.41615 5.71562C7.44351 5.5436 7.59207 5.41459 7.768 5.41459C7.768 5.41459 9.16368 5.52014 9.99639 5.52014C10.8291 5.52014 12.2561 5.41459 12.2561 5.41459C12.4515 5.41459 12.6079 5.57097 12.6118 5.76253C12.6118 5.93846 12.4867 6.08701 12.3108 6.11438C12.3108 6.11438 11.8495 6.1652 11.3412 6.19257L14.4023 15.2977L15.2742 12.5298C15.6104 11.6345 15.8176 10.6924 15.884 9.73845ZM57.0115 7.54524H52.9691V7.97528C54.2319 7.97528 54.4352 8.24504 54.4352 9.84791V12.7409C54.4352 14.3438 54.2319 14.637 52.9691 14.637C51.9996 14.5002 51.3428 13.9802 50.4397 12.9872L49.3998 11.8574C50.7994 11.6111 51.5461 10.7275 51.5461 9.73454C51.5461 8.49133 50.4827 7.54524 48.4967 7.54524H44.5208V7.97528C45.7875 7.97528 45.9908 8.24504 45.9908 9.84791V12.7409C45.9908 14.3438 45.7875 14.637 44.5208 14.637V15.067H49.0167V14.637C47.75 14.637 47.5467 14.3438 47.5467 12.7409V11.9277H47.9377L50.4475 15.0553H57.0193C60.2486 15.0553 61.6521 13.3391 61.6521 11.2827C61.6521 9.22631 60.2407 7.54524 57.0115 7.54524ZM47.5467 11.228V8.20985H48.4772C49.2434 8.16294 49.9002 8.74154 49.951 9.50779C49.955 9.57816 49.951 9.65244 49.951 9.72281C50.0214 10.4812 49.4624 11.1576 48.7 11.224C48.6257 11.2319 48.5554 11.2319 48.4811 11.224H47.5506L47.5467 11.228ZM57.078 14.3555H56.9216C56.1084 14.3555 55.9951 14.1522 55.9951 13.1123V8.20985H57.078C59.4237 8.20985 59.8576 9.9261 59.8576 11.2592C59.8576 12.5924 59.4237 14.3672 57.078 14.3672V14.3555ZM36.5494 5.28558H32.2998V5.73907C33.7463 5.73907 33.9496 6.13002 33.5 7.45532L31.9363 12.0607L29.7118 5.28558H29.2817L26.9947 12.0607L25.4818 7.45532C25.0048 6.05183 25.3684 5.73907 26.7015 5.73907V5.28558H21.6857V5.73907C22.9953 5.73907 23.3589 6.07529 23.8984 7.72508L26.4083 15.4502H26.7015L29.0472 8.38187L31.3538 15.4502H31.6665L34.2428 7.72508C34.8058 6.07529 35.1459 5.73907 36.569 5.73907L36.5494 5.28558ZM39.6183 7.25203C37.1358 7.25203 35.1029 9.08166 35.1029 11.2944C35.1029 13.5072 37.1358 15.3602 39.6183 15.3602C42.1009 15.3602 44.1377 13.5306 44.1377 11.2944C44.1377 9.0582 42.1048 7.25203 39.6183 7.25203ZM39.6183 14.637C37.5424 14.637 36.8192 12.7839 36.8192 11.2944C36.8192 9.80491 37.5424 7.95183 39.6183 7.95183C41.6943 7.95183 42.4449 9.82446 42.4449 11.2944C42.4449 12.7644 41.7216 14.637 39.6183 14.637ZM66.7226 5.28558H62.0313V5.73907C63.5481 5.73907 63.8179 6.09874 63.8179 8.35841V11.9707C63.8179 14.2304 63.5481 14.6135 62.0313 14.6135V15.067H67.2426V14.6135C65.7257 14.6135 65.456 14.2226 65.456 11.9707V10.8644H66.7422C69.0878 10.8644 70.3584 9.64462 70.3584 8.08475C70.3584 6.52487 69.0487 5.28558 66.7226 5.28558ZM66.7226 10.0277H65.4364V6.11829H66.7226C67.9893 6.11829 68.5757 7.02137 68.5757 8.10429C68.5757 9.18721 67.9893 10.0277 66.7226 10.0277ZM85.7421 13.3508C85.5388 14.0936 85.2925 14.3672 83.6858 14.3672H83.3691C82.1963 14.3672 81.993 14.0936 81.993 12.4907V11.4508C83.7561 11.4508 83.889 11.6111 83.889 12.7839H84.3191V9.41787H83.889C83.889 10.5907 83.7561 10.751 81.993 10.751V8.20985H83.2362C84.839 8.20985 85.0892 8.4796 85.2925 9.22631L85.402 9.65635H85.7656L85.617 7.54524H78.9709V7.97528C80.2337 7.97528 80.437 8.24504 80.437 9.84791V12.7409C80.437 14.207 80.265 14.5744 79.2642 14.6292C78.3181 14.4845 77.6652 13.9685 76.7738 12.9872L75.7378 11.8574C77.1374 11.6111 77.8841 10.7275 77.8841 9.73454C77.8841 8.49133 76.8207 7.54524 74.8347 7.54524H70.8588V7.97528C72.1216 7.97528 72.3249 8.24504 72.3249 9.84791V12.7409C72.3249 14.3438 72.1216 14.637 70.8588 14.637V15.067H75.3508V14.637C74.088 14.637 73.8847 14.3438 73.8847 12.7409V11.9277H74.2757L76.7816 15.0553H86.0666L86.2034 12.9325H85.8633L85.7421 13.3508ZM73.8887 11.228V8.20985H74.8152C75.5775 8.16294 76.2382 8.74154 76.2852 9.50388C76.2891 9.57816 76.2852 9.64853 76.2852 9.72281C76.3203 10.1216 76.1757 10.5203 75.8942 10.8057C75.6127 11.0911 75.2179 11.2436 74.8191 11.2162L73.8926 11.228H73.8887ZM91.6845 10.9113L90.4413 10.3014C89.3545 9.80491 88.8775 9.48824 88.8775 8.89791C88.8775 8.30759 89.4639 7.97528 90.0973 7.97528C91.2936 7.97528 91.8839 8.85491 92.052 9.93001H92.525V7.25203H92.0989C92.0559 7.47878 91.9543 7.68598 91.8057 7.86191C91.3014 7.47487 90.6798 7.26767 90.0425 7.27549C88.643 7.27549 87.6265 8.19812 87.6265 9.28495C87.6265 10.278 88.3028 11.0247 89.1903 11.4508L90.4765 12.0607C91.403 12.4907 91.923 12.9442 91.923 13.5306C91.923 14.207 91.3366 14.6135 90.6133 14.6135C89.2802 14.6135 88.2403 13.7339 88.0604 12.2444H87.6108V15.372H88.037C88.0878 15.0827 88.2129 14.8129 88.4006 14.5901C88.9713 15.0709 89.6868 15.3485 90.4335 15.372C91.9464 15.372 93.1701 14.379 93.1701 12.9559C93.1975 12.264 92.7674 11.4312 91.6845 10.9113ZM98.5182 10.9113L97.275 10.3014C96.1882 9.80491 95.7113 9.48824 95.7113 8.89791C95.7113 8.30759 96.2977 7.97528 96.931 7.97528C98.1273 7.97528 98.7176 8.85491 98.8857 9.93001H99.3588V7.25203H98.9092C98.8662 7.47878 98.7645 7.68598 98.616 7.86191C98.1116 7.47487 97.4901 7.26767 96.8528 7.27549C95.4532 7.27549 94.4368 8.19812 94.4368 9.28495C94.4368 10.278 95.1131 11.0247 96.0005 11.4508L97.2868 12.0607C98.2133 12.4907 98.7333 12.9442 98.7333 13.5306C98.7333 14.207 98.1468 14.6135 97.4236 14.6135C96.0905 14.6135 95.0505 13.7339 94.8707 12.2444H94.4211V15.372H94.8473C94.8981 15.0827 95.0232 14.8129 95.2108 14.5901C95.7816 15.0709 96.497 15.3485 97.2438 15.372C98.7567 15.372 99.9999 14.379 99.9999 12.9559C100.027 12.264 99.5972 11.4312 98.5182 10.9113Z" fill="black"/>
</g>
<defs>
<clipPath id="clip0_59_1887">
<rect width="100" height="20.3292" fill="white"/>
</clipPath>
</defs>
</svg>
